<mxfile host="app.diagrams.net" modified="2023-08-17T13:19:51.250Z" agent="Mozilla/5.0 (X11; Linux x86_64) AppleWebKit/537.36 (KHTML, like Gecko) Chrome/114.0.0.0 Safari/537.36" version="21.6.8" etag="tXId-RkT65RMrINNKfPW" type="github">
  <diagram name="PÃ¡gina-1" id="6lcKpJTcj7pLkaLXPDEd">
    <mxGraphModel>
      <root>
        <mxCell id="0" />
        <mxCell id="1" parent="0" />
      </root>
    </mxGraphModel>
  </diagram>
</mxfile>
